# Blender v2.79 (sub 0) OBJ File: ''
# www.blender.org
mtllib untitled.mtl
o GlassPanelRailing.001
v -3.200006 1.983336 -0.100002
v -3.111115 1.883334 -0.200005
v -3.100003 1.783338 -0.200005
v -3.100003 1.883333 -0.100002
v -3.066669 1.783338 -0.100002
v -0.822049 1.783338 -0.200005
v -2.451389 1.883333 -0.100002
v -3.050002 1.661114 -0.100002
v -3.050002 -0.561113 -0.100002
v 0.118055 1.783338 -0.001735
v -0.868056 1.883333 -0.100002
v 3.199999 1.983336 -0.100002
v 3.099996 1.883334 -0.200005
v 3.099996 1.883334 -0.100002
v -3.200006 -0.916661 -0.100002
v -3.100003 -0.716663 -0.200005
v -3.066669 -0.716663 -0.100002
v -0.911458 -0.716663 -0.200005
v -0.216146 -0.716663 -0.003472
v -3.100003 -0.816665 -0.200005
v -3.100003 -0.816665 -0.100003
v -2.069445 -0.816665 -0.100002
v -2.700006 -0.916661 -0.100002
v -2.900004 -1.216663 -0.100002
v -2.900004 -0.916661 -0.100002
v -2.700006 -1.216663 -0.100002
v 3.099996 -0.816665 -0.100002
v 2.699999 -0.916661 -0.100002
v -3.200006 1.983336 0.099996
v -3.100003 1.883333 0.099996
v -3.066669 1.783338 0.099996
v -3.111115 1.883334 0.199999
v -3.100003 1.783338 0.199999
v -1.704861 1.883333 0.099996
v -1.308160 1.783338 0.199999
v -3.050002 1.661113 0.099996
v 3.199999 1.983336 0.099996
v 3.099996 1.883334 0.099996
v -3.200006 -0.916661 0.099996
v -3.050002 -0.561114 0.099996
v -3.066669 -0.716663 0.099996
v -3.100003 -0.716663 0.199999
v -1.605903 -0.716663 0.199999
v -3.100003 -0.816665 0.099996
v -3.100003 -0.816665 0.199999
v -1.062500 -0.816665 0.099996
v -2.900004 -0.916661 0.099996
v -2.700006 -0.916661 0.099996
v -2.900004 -1.216663 0.099996
v -2.700006 -1.216663 0.099996
v -0.125000 -0.816665 0.199999
v 2.699999 -0.916661 0.099996
v 2.999993 1.783338 -0.200005
v 2.999993 1.783338 0.199999
v 2.999993 -0.716663 -0.200005
v 3.099996 -0.816665 -0.200005
v 3.199999 -0.916661 -0.100002
v 2.899998 -0.916661 -0.100002
v 2.699999 -1.216663 -0.100002
v 2.899998 -1.216663 -0.100002
v 3.099996 1.883334 0.199999
v 3.099996 -0.816665 0.099996
v 2.999993 -0.716663 0.199999
v 3.199999 -0.916661 0.099996
v 3.099996 -0.816665 0.199999
v 2.899998 -0.916661 0.099996
v 2.699999 -1.216663 0.099996
v 2.899998 -1.216663 0.099996
vt 0.900000 0.187408
vt 0.892307 0.017647
vt 0.900000 0.015126
vt 0.015385 0.499160
vt 0.023077 0.442542
vt 0.023077 0.491597
vt 0.015385 0.015126
vt 0.023077 0.322794
vt 0.776922 0.984874
vt 0.769230 0.688249
vt 0.776922 0.515126
vt 0.211111 0.487815
vt 0.238461 0.499160
vt 0.576923 0.681487
vt 0.569230 0.515966
vt 0.576923 0.515966
vt 0.261538 0.461345
vt 0.261538 0.476471
vt 0.238461 0.476471
vt 0.338462 0.582362
vt 0.346154 0.582353
vt 0.346154 0.589924
vt 0.338462 0.589950
vt 0.230769 0.022689
vt 0.238461 0.461345
vt 0.230769 0.413655
vt 0.769230 0.348516
vt 0.776922 0.484874
vt 0.769230 0.484034
vt 0.861538 0.506722
vt 0.853845 0.613078
vt 0.853845 0.507563
vt 0.530769 0.386082
vt 0.538461 0.499160
vt 0.530769 0.491597
vt 0.869230 0.150644
vt 0.876923 0.017647
vt 0.884748 0.258509
vt 0.853845 0.976470
vt 0.530768 0.022689
vt 0.538461 0.015126
vt 0.342734 0.487815
vt 0.315385 0.499160
vt 0.900000 0.975630
vt 0.892307 0.975630
vt 0.892307 0.821533
vt 0.292308 0.461345
vt 0.315385 0.476471
vt 0.292308 0.476471
vt 0.569230 0.259033
vt 0.576923 0.371034
vt 0.569230 0.484034
vt 0.315384 0.052941
vt 0.323076 0.337500
vt 0.315385 0.461345
vt 0.900000 0.476470
vt 0.015385 0.529412
vt 0.046154 0.718478
vt 0.015385 0.718478
vt 0.576923 0.977311
vt 0.769230 0.977311
vt 0.253846 0.529412
vt 0.261539 0.733613
vt 0.253846 0.733613
vt 0.023077 0.022689
vt 0.822810 0.233233
vt 0.807692 0.476470
vt 0.807692 0.180646
vt 0.984615 0.515126
vt 0.976923 0.984033
vt 0.976923 0.515126
vt 0.238461 0.037815
vt 0.238461 0.052941
vt 0.238461 0.015126
vt 0.261538 0.052941
vt 0.769230 0.022689
vt 0.776922 0.015126
vt 0.323076 0.022689
vt 0.576923 0.022689
vt 0.569230 0.015126
vt 0.215385 0.529412
vt 0.223077 0.529412
vt 0.215385 0.733613
vt 0.315384 0.037815
vt 0.315384 0.015126
vt 0.292307 0.052941
vt 0.900000 0.506722
vt 0.892307 0.506722
vt 0.092308 0.748739
vt 0.076923 0.529412
vt 0.092308 0.529412
vt 0.138462 0.748729
vt 0.123077 0.748729
vt 0.138462 0.529412
vt 0.830769 0.017647
vt 0.815384 0.017647
vt 0.184615 0.706726
vt 0.169231 0.706726
vt 0.184615 0.538659
vt 0.976923 0.484874
vt 0.976923 0.015126
vt 0.984615 0.184769
vt 0.984615 0.484874
vt 0.769230 0.515966
vt 0.984615 0.015966
vt 0.984615 0.065021
vt 0.030769 0.489076
vt 0.040171 0.487815
vt 0.807692 0.015126
vt 0.230769 0.491597
vt 0.376923 0.589916
vt 0.376923 0.582379
vt 0.384616 0.582353
vt 0.384616 0.589916
vt 0.984615 0.906092
vt 0.984615 0.984033
vt 0.523076 0.589923
vt 0.523076 0.582352
vt 0.530769 0.582361
vt 0.530769 0.589949
vt 0.223077 0.489076
vt 0.838461 0.128125
vt 0.838461 0.015126
vt 0.869230 0.015126
vt 0.523077 0.489076
vt 0.513675 0.487815
vt 0.323077 0.491597
vt 0.415385 0.582353
vt 0.423078 0.582379
vt 0.423078 0.589916
vt 0.415385 0.589916
vt 0.169231 0.529412
vt 0.184615 0.529412
vt 0.169231 0.538659
vt 0.576923 0.484034
vt 0.330769 0.489076
vt 0.900000 0.750630
vt 0.869230 0.476470
vt 0.261539 0.529412
vt 0.569230 0.984874
vt 0.046154 0.529412
vt 0.838461 0.476470
vt 0.261538 0.037815
vt 0.861538 0.976470
vt 0.223077 0.733613
vt 0.292307 0.037815
vt 0.946154 0.015126
vt 0.946154 0.499160
vt 0.930769 0.499160
vt 0.930769 0.015126
vt 0.184615 0.718487
vt 0.169231 0.718487
vt 0.123077 0.529412
vt 0.338462 0.552101
vt 0.338462 0.529412
vt 0.353846 0.529412
vt 0.353846 0.552101
vt 0.492307 0.552100
vt 0.476923 0.552100
vt 0.476923 0.529412
vt 0.492307 0.529412
vt 0.430769 0.529412
vt 0.446154 0.529412
vt 0.446154 0.552101
vt 0.430769 0.552101
vt 0.476923 0.597478
vt 0.476923 0.582352
vt 0.492307 0.582352
vt 0.492307 0.597478
vt 0.807692 0.915126
vt 0.807692 0.506722
vt 0.823076 0.506722
vt 0.823076 0.915126
vt 0.292308 0.552101
vt 0.292308 0.529412
vt 0.307692 0.529412
vt 0.307692 0.552101
vt 0.523076 0.529412
vt 0.538461 0.529412
vt 0.538461 0.552100
vt 0.523076 0.552100
vt 0.384615 0.529412
vt 0.400000 0.529412
vt 0.400000 0.552101
vt 0.384615 0.552101
vt 0.292308 0.597479
vt 0.292308 0.582353
vt 0.307692 0.582353
vt 0.307692 0.597479
vt 0.076923 0.748739
vn 0.0000 -1.0000 -0.0000
vn 0.0000 0.0000 -1.0000
vn -0.9540 -0.2120 0.2120
vn 0.0000 -0.0000 1.0000
vn 0.0000 1.0000 0.0000
vn -1.0000 0.0000 0.0000
vn 1.0000 0.0000 0.0000
vn -0.9733 0.1622 0.1622
vn -0.9540 -0.2120 -0.2120
vn -0.9733 0.1622 -0.1622
vn 0.9908 0.1351 0.0000
vn 0.9943 -0.1065 -0.0000
usemtl palette
s off
f 6/1/1 5/2/1 3/3/1
f 1/4/2 7/5/2 4/6/2
f 12/7/2 11/8/2 1/4/2
f 13/9/2 6/10/2 2/11/2
f 9/12/2 15/13/2 1/4/2
f 18/14/2 20/15/2 16/16/2
f 26/17/2 24/18/2 25/19/2
f 4/20/3 2/21/3 3/22/3 5/23/3
f 27/24/2 23/25/2 22/26/2
f 35/27/4 32/28/4 33/29/4
f 32/30/5 34/31/5 30/32/5
f 34/33/4 29/34/4 30/35/4
f 35/36/1 31/37/1 10/38/1
f 32/30/5 38/39/5 34/31/5
f 38/40/4 37/41/4 34/33/4
f 40/42/4 29/34/4 39/43/4
f 45/44/1 44/45/1 46/46/1
f 50/47/4 47/48/4 49/49/4
f 51/50/4 43/51/4 45/52/4
f 52/53/4 46/54/4 48/55/4
f 10/38/1 6/1/1 53/56/1
f 55/57/6 54/58/6 53/59/6
f 13/9/2 55/60/2 53/61/2
f 27/62/7 13/63/7 14/64/7
f 12/7/2 27/24/2 14/65/2
f 19/66/5 55/67/5 18/68/5
f 27/69/1 20/70/1 56/71/1
f 55/60/2 20/15/2 18/14/2
f 27/24/2 58/72/2 28/73/2
f 27/24/2 57/74/2 58/72/2
f 58/72/2 59/75/2 28/73/2
f 54/76/4 61/77/4 35/27/4
f 37/41/4 38/40/4 62/78/4
f 61/77/4 54/76/4 63/79/4
f 65/80/4 63/79/4 51/50/4
f 65/81/7 62/82/7 61/83/7
f 66/84/4 62/78/4 52/53/4
f 64/85/4 62/78/4 66/84/4
f 66/84/4 52/53/4 67/86/4
f 65/87/1 46/46/1 62/88/1
f 64/89/7 12/90/7 37/91/7
f 15/92/6 39/93/6 1/94/6
f 41/95/5 19/66/5 17/96/5
f 40/97/7 9/98/7 36/99/7
f 13/100/5 2/101/5 11/102/5 14/103/5
f 2/11/2 6/10/2 3/104/2
f 4/105/5 7/106/5 2/101/5
f 6/1/1 31/37/1 5/2/1
f 4/6/2 5/107/2 1/4/2
f 5/107/2 8/108/2 1/4/2
f 8/108/2 9/12/2 1/4/2
f 10/38/1 31/37/1 6/1/1
f 7/106/5 11/102/5 2/101/5
f 1/4/2 11/8/2 7/5/2
f 18/68/5 16/109/5 17/96/5 19/66/5
f 12/7/2 14/65/2 11/8/2
f 15/13/2 21/110/2 22/26/2 25/19/2
f 21/111/8 17/112/8 16/113/8 20/114/8
f 20/70/1 22/115/1 21/116/1
f 22/26/2 23/25/2 25/19/2
f 33/117/9 32/118/9 30/119/9 31/120/9
f 23/25/2 26/17/2 25/19/2
f 9/12/2 17/121/2 15/13/2
f 17/121/2 21/110/2 15/13/2
f 27/69/1 22/115/1 20/70/1
f 27/24/2 28/73/2 23/25/2
f 43/122/5 19/66/5 41/95/5 42/123/5
f 35/36/1 33/124/1 31/37/1
f 29/34/4 31/125/4 30/35/4
f 29/34/4 36/126/4 31/125/4
f 34/33/4 37/41/4 29/34/4
f 46/54/4 44/127/4 39/43/4 47/48/4
f 42/128/10 41/129/10 44/130/10 45/131/10
f 47/48/4 48/55/4 46/54/4
f 5/132/11 31/133/11 36/99/11 8/134/11
f 45/52/4 43/51/4 42/135/4
f 50/47/4 48/55/4 47/48/4
f 39/43/4 41/136/4 40/42/4
f 39/43/4 44/127/4 41/136/4
f 51/137/1 45/44/1 46/46/1
f 13/9/2 53/61/2 6/10/2
f 54/138/1 10/38/1 53/56/1
f 27/62/7 56/139/7 13/63/7
f 13/9/2 56/140/2 55/60/2
f 55/57/6 63/141/6 54/58/6
f 55/60/2 56/140/2 20/15/2
f 19/66/5 63/142/5 55/67/5
f 58/72/2 60/143/2 59/75/2
f 35/27/4 61/77/4 32/28/4
f 32/30/5 61/144/5 38/39/5
f 54/138/1 35/36/1 10/38/1
f 61/83/7 62/82/7 38/145/7
f 64/85/4 37/41/4 62/78/4
f 43/122/5 63/142/5 19/66/5
f 51/50/4 63/79/4 43/51/4
f 65/87/1 51/137/1 46/46/1
f 65/80/4 61/77/4 63/79/4
f 68/146/4 66/84/4 67/86/4
f 52/53/4 62/78/4 46/54/4
f 12/147/5 1/148/5 29/149/5 37/150/5
f 36/99/7 9/98/7 8/134/7
f 9/98/12 40/97/12 41/151/12 17/152/12
f 1/94/6 39/93/6 29/153/6
f 15/154/1 25/155/1 47/156/1 39/157/1
f 47/158/6 25/159/6 24/160/6 49/161/6
f 23/162/7 48/163/7 50/164/7 26/165/7
f 24/166/1 26/167/1 50/168/1 49/169/1
f 23/170/1 28/171/1 52/172/1 48/173/1
f 58/174/1 57/175/1 64/176/1 66/177/1
f 52/178/6 28/179/6 59/180/6 67/181/6
f 58/182/7 66/183/7 68/184/7 60/185/7
f 59/186/1 60/187/1 68/188/1 67/189/1
f 40/42/4 36/126/4 29/34/4
f 12/7/2 57/74/2 27/24/2
f 64/89/7 57/190/7 12/90/7
