# Blender v2.79 (sub 0) OBJ File: ''
# www.blender.org
mtllib untitled.mtl
o Metal_Floor(Grey).001
v -3.230775 -0.050001 -3.184621
v -3.230775 -0.050001 0.043163
v 0.163458 -0.050001 -0.092688
v -3.230775 -0.050002 3.215384
v -3.230775 0.049995 -3.184621
v -3.230775 0.049994 3.215384
v -1.575908 0.049994 0.159482
v 3.169230 -0.050001 -3.184621
v 3.169230 -0.050002 3.215384
v 3.169230 0.049995 -3.184621
v 3.169230 0.049994 3.215384
vt 0.757946 0.264282
vt 0.514706 0.014706
vt 0.747957 0.014706
vt 0.260596 0.136387
vt 0.014706 0.014706
vt 0.485294 0.014706
vt 0.022059 0.985294
vt 0.014706 0.985294
vt 0.014706 0.747957
vt 0.022058 0.514706
vt 0.014706 0.485294
vt 0.485294 0.485294
vt 0.014706 0.514706
vt 0.985294 0.014706
vt 0.985294 0.485294
vt 0.514706 0.485294
vt 0.095587 0.514706
vt 0.095587 0.985294
vt 0.088235 0.985294
vt 0.088235 0.514706
vt 0.124999 0.514706
vt 0.132352 0.514706
vt 0.132352 0.985294
vt 0.124999 0.985294
vt 0.051470 0.985294
vt 0.051470 0.514706
vt 0.058823 0.514706
vt 0.058823 0.985294
vn 0.0000 -1.0000 -0.0000
vn -0.0000 1.0000 0.0000
vn -1.0000 0.0000 0.0000
vn 0.0000 0.0000 -1.0000
vn 1.0000 0.0000 0.0000
vn 0.0000 0.0000 1.0000
usemtl palette
s off
f 3/1/1 4/2/1 2/3/1
f 7/4/2 5/5/2 6/6/2
f 5/7/3 1/8/3 2/9/3 6/10/3
f 10/11/2 5/5/2 7/4/2
f 11/12/2 7/4/2 6/6/2
f 4/13/3 6/10/3 2/9/3
f 1/14/1 3/1/1 2/3/1
f 1/14/1 8/15/1 3/1/1
f 3/1/1 9/16/1 4/2/1
f 8/17/4 1/18/4 5/19/4 10/20/4
f 8/21/5 10/22/5 11/23/5 9/24/5
f 8/15/1 9/16/1 3/1/1
f 11/12/2 10/11/2 7/4/2
f 4/25/6 9/26/6 11/27/6 6/28/6
