# Blender v2.79 (sub 0) OBJ File: ''
# www.blender.org
mtllib Wall_Tile(Checkered2).mtl
o Wall_Tile(Checkered).001
v -3.240236 -0.050003 -3.200006
v 0.080864 -0.050004 -0.328125
v -3.240236 -0.050005 3.199999
v -3.240236 0.049992 -3.200006
v -0.143529 0.049992 -0.279514
v -3.240236 0.049991 3.199999
v 3.159769 -0.050003 -3.200006
v 3.159769 -0.050005 3.199999
v 3.159769 0.049992 -3.200006
v 3.159769 0.049992 0.027778
v 3.159769 0.049991 3.199999
vt 0.372603 0.774127
vt 0.750001 0.514706
vt 0.750001 0.985294
vt 0.418127 0.257595
vt 0.750001 0.485294
vt 0.022727 0.485294
vt 0.022727 0.985294
vt 0.022727 0.014706
vt 0.977273 0.252043
vt 0.965910 0.014706
vt 0.977273 0.014706
vt 0.977273 0.485294
vt 0.965909 0.485294
vt 0.022727 0.514706
vt 0.750001 0.014706
vt 0.383207 0.014706
vt 0.920455 0.014706
vt 0.920455 0.485294
vt 0.909092 0.485294
vt 0.909092 0.014706
vt 0.806819 0.485294
vt 0.795456 0.485294
vt 0.795456 0.014706
vt 0.806819 0.014706
vt 0.852274 0.485294
vt 0.852274 0.014706
vt 0.863637 0.014706
vt 0.863637 0.485294
vn -0.0000 -1.0000 -0.0000
vn 0.0000 1.0000 0.0000
vn 1.0000 0.0000 0.0000
vn 0.0000 0.0000 -1.0000
vn -1.0000 0.0000 0.0000
vn 0.0000 0.0000 1.0000
usemtl palette
s off
f 2/1/1 3/2/1 1/3/1
f 5/4/2 4/5/2 6/6/2
f 7/7/1 2/1/1 1/3/1
f 11/8/2 5/4/2 6/6/2
f 10/9/3 7/10/3 9/11/3
f 11/12/3 8/13/3 10/9/3
f 2/1/1 8/14/1 3/2/1
f 7/7/1 8/14/1 2/1/1
f 5/4/2 9/15/2 4/5/2
f 10/16/2 9/15/2 5/4/2
f 11/8/2 10/16/2 5/4/2
f 7/17/4 1/18/4 4/19/4 9/20/4
f 4/21/5 1/22/5 3/23/5 6/24/5
f 3/25/6 8/26/6 11/27/6 6/28/6
f 10/9/3 8/13/3 7/10/3
