# Blender v2.79 (sub 0) OBJ File: ''
# www.blender.org
mtllib untitled.mtl
o RedWall_1.001
v -3.200006 -6.510011 -0.193338
v 0.339597 -1.385152 -0.193337
v -3.200006 -1.210010 0.006654
v 3.199995 -6.510011 -0.193338
v -3.200006 -6.510011 0.006653
v 3.199995 -6.510011 0.006653
v -3.200006 -1.210010 0.106656
v -3.200006 1.489999 0.006655
v -3.200006 6.089998 -0.193336
v 3.199995 6.089998 -0.193336
v -3.200006 1.489999 0.106657
v 3.199995 6.089998 0.006655
v 3.199995 1.489999 0.006655
v -3.200006 6.089998 0.006655
v 3.199995 -1.210010 0.006654
v 3.199995 -0.441994 -0.193337
v 3.199995 -1.210010 0.106656
v 3.199995 1.489999 0.106657
vt 0.012270 0.010101
vt 0.229423 0.387634
vt 0.012270 0.646465
vt 0.969326 0.722222
vt 0.975461 0.585858
vt 0.975461 0.722222
vt 0.429448 0.676767
vt 0.711656 0.353535
vt 0.711656 0.676767
vt 0.404908 0.646465
vt 0.932516 0.621212
vt 0.944785 0.353535
vt 0.944786 0.660001
vt 0.901841 0.353535
vt 0.736196 0.676767
vt 0.736196 0.353535
vt 0.852760 0.010101
vt 0.858895 0.010101
vt 0.852760 0.333333
vt 0.926381 0.621212
vt 0.932516 0.757576
vt 0.779141 0.010101
vt 0.791411 0.333333
vt 0.779141 0.333333
vt 0.975461 0.353535
vt 0.987730 0.353535
vt 0.815951 0.010101
vt 0.828220 0.333333
vt 0.815951 0.333333
vt 0.429448 0.333333
vt 0.429448 0.010101
vt 0.754601 0.333333
vt 0.987730 0.989899
vt 0.901841 0.676767
vt 0.858895 0.333333
vt 0.429448 0.353535
vt 0.404908 0.339999
vt 0.883435 0.333333
vt 0.889570 0.010101
vt 0.889570 0.333333
vt 0.754601 0.010101
vt 0.944786 0.989899
vt 0.404908 0.010101
vt 0.926381 0.757576
vt 0.975461 0.989899
vt 0.932516 0.989899
vt 0.828220 0.010101
vt 0.969326 0.585858
vt 0.883435 0.010101
vt 0.932516 0.353535
vt 0.791411 0.010101
vn -0.0000 0.0000 -1.0000
vn -1.0000 -0.0000 0.0000
vn 0.0000 -0.0000 1.0000
vn 1.0000 -0.0000 0.0000
vn 0.0000 1.0000 0.0000
vn 0.0000 -1.0000 0.0000
usemtl palette
s off
f 9/1/1 2/2/1 1/3/1
f 7/4/2 8/5/2 3/6/2
f 12/7/3 8/8/3 13/9/3
f 2/2/1 4/10/1 1/3/1
f 15/11/4 4/12/4 16/13/4
f 18/14/3 7/15/3 17/16/3
f 18/17/5 13/18/5 11/19/5
f 17/20/4 15/11/4 13/21/4
f 4/22/6 5/23/6 1/24/6
f 14/25/2 9/26/2 8/5/2
f 12/27/5 9/28/5 14/29/5
f 5/30/3 6/31/3 3/32/3
f 1/33/2 8/5/2 9/26/2
f 3/6/2 8/5/2 1/33/2
f 18/14/3 11/34/3 7/15/3
f 11/19/5 13/18/5 8/35/5
f 12/7/3 14/36/3 8/8/3
f 4/10/1 2/2/1 16/37/1
f 3/38/6 17/39/6 7/40/6
f 15/41/3 3/32/3 6/31/3
f 13/21/4 15/11/4 16/13/4
f 16/13/4 10/42/4 13/21/4
f 2/2/1 10/43/1 16/37/1
f 9/1/1 10/43/1 2/2/1
f 13/21/4 18/44/4 17/20/4
f 1/33/2 5/45/2 3/6/2
f 12/46/4 13/21/4 10/42/4
f 12/27/5 10/47/5 9/28/5
f 8/5/2 7/4/2 11/48/2
f 3/38/6 15/49/6 17/39/6
f 4/12/4 15/11/4 6/50/4
f 6/51/6 5/23/6 4/22/6
